<svg xmlns="http://www.w3.org/2000/svg" viewBox="0 0 6946 3745" role="img" aria-label="Protein Please">
  <title>Protein Please</title>
  <g fill="#F6F2E6">
    <path transform="translate(101.2,1754.2) scale(1,-1)" d="M84 1619H508Q680 1619 772.5 1592.0Q865 1565 911.5 1514.0Q958 1463 974.5 1390.5Q991 1318 991 1166V1025Q991 870 959.0 799.0Q927 728 841.5 690.0Q756 652 618 652H505V0H84ZM505 1342V930Q523 929 536 929Q594 929 616.5 957.5Q639 986 639 1076V1209Q639 1292 613.0 1317.0Q587 1342 505 1342Z"/>
    <path transform="translate(1129.2,1754.2) scale(1,-1)" d="M84 1619H382Q680 1619 785.5 1596.0Q891 1573 957.5 1478.5Q1024 1384 1024 1177Q1024 988 977.0 923.0Q930 858 792 845Q917 814 960.0 762.0Q1003 710 1013.5 666.5Q1024 623 1024 427V0H633V538Q633 668 612.5 699.0Q592 730 505 730V0H84ZM505 1342V982Q576 982 604.5 1001.5Q633 1021 633 1128V1217Q633 1294 605.5 1318.0Q578 1342 505 1342Z"/>
    <path transform="translate(2232.2,1754.2) scale(1,-1)" d="M1046 671Q1046 427 1034.5 325.5Q1023 224 962.5 140.0Q902 56 799.0 11.0Q696 -34 559 -34Q429 -34 325.5 8.5Q222 51 159.0 136.0Q96 221 84.0 321.0Q72 421 72 671V948Q72 1192 83.5 1293.5Q95 1395 155.5 1479.0Q216 1563 319.0 1608.0Q422 1653 559 1653Q689 1653 792.5 1610.5Q896 1568 959.0 1483.0Q1022 1398 1034.0 1298.0Q1046 1198 1046 948ZM625 1203Q625 1316 612.5 1347.5Q600 1379 561 1379Q528 1379 510.5 1353.5Q493 1328 493 1203V447Q493 306 504.5 273.0Q516 240 558 240Q601 240 613.0 278.0Q625 316 625 459Z"/>
    <path transform="translate(3351.2,1754.2) scale(1,-1)" d="M932 1619V1295H682V0H261V1295H12V1619Z"/>
    <path transform="translate(4295.2,1754.2) scale(1,-1)" d="M84 1619H786V1295H505V988H768V680H505V324H814V0H84Z"/>
    <path transform="translate(5146.2,1754.2) scale(1,-1)" d="M505 1619V0H84V1619Z"/>
    <path transform="translate(5736.2,1754.2) scale(1,-1)" d="M1024 1619V0H655L436 736V0H84V1619H436L672 890V1619Z"/>
    <path transform="translate(669.2,3609.9) scale(1,-1)" d="M84 1619H508Q680 1619 772.5 1592.0Q865 1565 911.5 1514.0Q958 1463 974.5 1390.5Q991 1318 991 1166V1025Q991 870 959.0 799.0Q927 728 841.5 690.0Q756 652 618 652H505V0H84ZM505 1342V930Q523 929 536 929Q594 929 616.5 957.5Q639 986 639 1076V1209Q639 1292 613.0 1317.0Q587 1342 505 1342Z"/>
    <path transform="translate(1697.2,3609.9) scale(1,-1)" d="M505 1619V324H761V0H84V1619Z"/>
    <path transform="translate(2476.2,3609.9) scale(1,-1)" d="M84 1619H786V1295H505V988H768V680H505V324H814V0H84Z"/>
    <path transform="translate(3327.2,3609.9) scale(1,-1)" d="M811 1619 1052 0H621L600 291H449L424 0H-12L202 1619ZM588 578Q556 853 524 1257Q460 793 444 578Z"/>
    <path transform="translate(4367.2,3609.9) scale(1,-1)" d="M976 1129H585V1249Q585 1333 570.0 1356.0Q555 1379 520 1379Q482 1379 462.5 1348.0Q443 1317 443 1254Q443 1173 465 1132Q486 1091 584 1033Q865 866 938 759Q1011 652 1011 414Q1011 241 970.5 159.0Q930 77 814.0 21.5Q698 -34 544 -34Q375 -34 255.5 30.0Q136 94 99.0 193.0Q62 292 62 474V580H453V383Q453 292 469.5 266.0Q486 240 528 240Q570 240 590.5 273.0Q611 306 611 371Q611 514 572 558Q532 602 375 705Q218 809 167.0 856.0Q116 903 82.5 986.0Q49 1069 49 1198Q49 1384 96.5 1470.0Q144 1556 250.0 1604.5Q356 1653 506 1653Q670 1653 785.5 1600.0Q901 1547 938.5 1466.5Q976 1386 976 1193Z"/>
    <path transform="translate(5426.2,3609.9) scale(1,-1)" d="M84 1619H786V1295H505V988H768V680H505V324H814V0H84Z"/>
  </g>
</svg>
